<svg width="128" height="128" viewBox="0 0 128 128" xmlns="http://www.w3.org/2000/svg">
  <defs>
    <linearGradient id="bg" x1="0" y1="0" x2="1" y2="1">
      <stop offset="0%" stop-color="#8b5cf6"/>
      <stop offset="50%" stop-color="#6366f1"/>
      <stop offset="100%" stop-color="#0f172a"/>
    </linearGradient>
  </defs>
  <rect x="8" y="8" width="112" height="112" rx="40" fill="url(#bg)"/>
  <path
    d="M46 94c-2.9 0-5.4-0.4-7.6-1.2-2.1-0.8-4-2.1-5.4-3.8-1.5-1.7-2.6-3.9-3.4-6.4l10.2-3.6c0.5 1.8 1.2 3.2 2.3 4.2 1.1 1 2.4 1.5 4.2 1.5 2 0 3.5-0.5 4.6-1.6 1.1-1.1 1.7-2.5 1.7-4.3 0-1.5-0.3-2.7-1-3.6-0.7-0.9-1.7-1.6-3.2-2.1l-6.1-2.1c-3.6-1.2-6.4-3.1-8.3-5.7-1.9-2.6-2.9-5.8-2.9-9.6 0-4.8 1.5-8.7 4.6-11.7 3.1-3 7.3-4.6 12.7-4.6 4 0 7.3 0.7 10 2.2 2.7 1.5 4.7 3.7 6.1 6.6l-9.4 4.3c-0.7-1.6-1.6-2.7-2.7-3.4-1.1-0.7-2.4-1.1-4.1-1.1-1.7 0-3 0.5-4 1.4-1 0.9-1.4 2.2-1.4 3.8 0 1.4 0.3 2.5 0.9 3.4 0.6 0.9 1.6 1.6 3 2.1l6.2 2.2c3.8 1.3 6.6 3.3 8.5 5.9 1.9 2.6 2.9 5.9 2.9 9.9 0 3-0.7 5.7-2.1 8.1s-3.3 4.3-5.8 5.7c-2.5 1.4-5.5 2.1-9.1 2.1z"
    fill="#f9fafb"
  />
  <path
    d="M82 34h10v60H82z"
    fill="#e5e7eb"
    opacity="0.8"
  />
</svg>

